<svg id="snowflake-2" width="50" height="50" viewBox="0 0 50 50" fill="none" xmlns="http://www.w3.org/2000/svg">
<line x1="2.97028" y1="36.9933" x2="46.2715" y2="11.9933" stroke="#F0F0F0"/>
<path d="M41.3863 10.7812V10.7812C40.1325 13.4691 41.9317 16.5853 44.8863 16.8434V16.8434" stroke="#F0F0F0"/>
<path d="M6.78116 38.8433V38.8433C8.03496 36.1555 6.23577 33.0392 3.28116 32.7811V32.7811" stroke="#F0F0F0"/>
<path d="M11.2452 38.5757V38.5757C12.1412 34.4573 9.75984 30.3327 5.74524 29.0494V29.0494" stroke="#F0F0F0"/>
<path d="M36.9222 11.0493V11.0493C36.0262 15.1677 38.4076 19.2923 42.4222 20.5756V20.5756" stroke="#F0F0F0"/>
<line x1="2.97809" y1="11.9933" x2="46.2794" y2="36.9933" stroke="#F0F0F0"/>
<path d="M44.8863 32.1562V32.1562C41.9317 32.4143 40.1325 35.5306 41.3863 38.2184V38.2184" stroke="#F0F0F0"/>
<path d="M3.28116 16.2188V16.2188C6.23577 15.9607 8.03496 12.8444 6.78116 10.1566V10.1566" stroke="#F0F0F0"/>
<path d="M5.74525 19.9507V19.9507C9.75985 18.6674 12.1412 14.5428 11.2453 10.4244V10.4244" stroke="#F0F0F0"/>
<path d="M42.4222 28.4243V28.4243C38.4076 29.7076 36.0262 33.8322 36.9222 37.9506V37.9506" stroke="#F0F0F0"/>
<line x1="24.5" x2="24.5" y2="50" stroke="#F0F0F0"/>
<path d="M19 7V7C22.1186 9.83512 26.8814 9.83512 30 7V7" stroke="#F0F0F0"/>
<path d="M21 3V3C22.7008 5.42973 26.2992 5.42973 28 3V3" stroke="#F0F0F0"/>
<path d="M28 47V47C26.2992 44.5703 22.7008 44.5703 21 47V47" stroke="#F0F0F0"/>
<path d="M30 43V43C26.8814 40.1649 22.1186 40.1649 19 43V43" stroke="#F0F0F0"/>
</svg>
