<svg id="snowflake-1" width="63" height="63" viewBox="0 0 63 63" fill="none" xmlns="http://www.w3.org/2000/svg">
<path d="M19.8481 11.4592L29.8481 28.7797" stroke="#F0F0F0"/>
<path d="M18.1519 20.5215V20.5215C22.6102 21.292 26.9824 18.7677 28.5442 14.5215V14.5215" stroke="#F0F0F0"/>
<path d="M17.884 16.0571V16.0571C20.9416 17.2517 24.3179 15.3024 24.8122 12.0571V12.0571" stroke="#F0F0F0"/>
<path d="M21.518 24.3516V24.3516C25.1686 24.6704 28.629 22.6726 30.1782 19.3516V19.3516" stroke="#F0F0F0"/>
<path d="M42.8481 51.2964L32.8481 33.9759" stroke="#F0F0F0"/>
<path d="M44.5442 42.2344V42.2344C40.086 41.4639 35.7138 43.9882 34.1519 48.2344V48.2344" stroke="#F0F0F0"/>
<path d="M44.8122 46.6982V46.6982C41.7546 45.5037 38.3782 47.453 37.884 50.6982V50.6982" stroke="#F0F0F0"/>
<path d="M41.1782 38.4043V38.4043C37.5276 38.0854 34.0671 40.0833 32.518 43.4043V43.4043" stroke="#F0F0F0"/>
<path d="M8.34815 31.3779L28.3482 31.3779" stroke="#F0F0F0"/>
<path d="M15.3481 37.3779V37.3779C18.2445 33.9022 18.2445 28.8536 15.3481 25.3779V25.3779" stroke="#F0F0F0"/>
<path d="M11.3482 35.3779V35.3779C13.9115 33.3273 13.9115 29.4286 11.3482 27.3779V27.3779" stroke="#F0F0F0"/>
<path d="M20.3481 36.3779V36.3779C22.4496 33.3758 22.4496 29.38 20.3481 26.3779V26.3779" stroke="#F0F0F0"/>
<path d="M54.3481 31.3779L34.3481 31.3779" stroke="#F0F0F0"/>
<path d="M47.3481 25.3779V25.3779C44.4517 28.8536 44.4517 33.9022 47.3481 37.3779V37.3779" stroke="#F0F0F0"/>
<path d="M51.3481 27.3779V27.3779C48.7848 29.4286 48.7848 33.3273 51.3481 35.3779V35.3779" stroke="#F0F0F0"/>
<path d="M42.3481 26.3779V26.3779C40.2467 29.38 40.2467 33.3758 42.3481 36.3779V36.3779" stroke="#F0F0F0"/>
<path d="M42.848 11.459L32.848 28.7795" stroke="#F0F0F0"/>
<path d="M34.1519 14.5212V14.5212C35.7137 18.7674 40.0859 21.2918 44.5442 20.5212V20.5212" stroke="#F0F0F0"/>
<path d="M37.8839 12.0571V12.0571C38.3782 15.3024 41.7545 17.2517 44.8121 16.0571V16.0571" stroke="#F0F0F0"/>
<path d="M32.5179 19.3511V19.3511C34.0671 22.6721 37.5275 24.67 41.1781 24.3511V24.3511" stroke="#F0F0F0"/>
<path d="M19.848 51.2964L29.848 33.9759" stroke="#F0F0F0"/>
<path d="M28.5442 48.2344V48.2344C26.9823 43.9882 22.6101 41.4639 18.1519 42.2344V42.2344" stroke="#F0F0F0"/>
<path d="M24.8121 50.6982V50.6982C24.3178 47.453 20.9415 45.5037 17.8839 46.6982V46.6982" stroke="#F0F0F0"/>
<path d="M30.1781 43.4043V43.4043C28.629 40.0833 25.1685 38.0854 21.5179 38.4043V38.4043" stroke="#F0F0F0"/>
</svg>
